<?xml version="1.0" standalone="no"?>
<!DOCTYPE svg PUBLIC "-//W3C//DTD SVG 20010904//EN"
 "http://www.w3.org/TR/2001/REC-SVG-20010904/DTD/svg10.dtd">
<svg version="1.0" xmlns="http://www.w3.org/2000/svg"
 width="500.000000pt" height="500.000000pt" viewBox="0 0 500.000000 500.000000"
 preserveAspectRatio="xMidYMid meet">

<g transform="translate(0.000000,500.000000) scale(0.100000,-0.100000)"
fill="#000000" stroke="none">
<path d="M710 3415 l0 -705 35 0 35 0 0 664 0 664 23 6 c12 3 313 6 670 6
l647 0 0 35 0 35 -705 0 -705 0 0 -705z"/>
<path d="M2547 3288 c-49 -13 -94 -59 -107 -110 -7 -25 -10 -118 -8 -247 3
-185 5 -209 23 -239 34 -57 78 -77 170 -77 133 0 183 48 193 186 l5 70 -74 -3
-74 -3 -3 -50 c-4 -87 -8 -95 -46 -95 -22 0 -36 6 -40 16 -3 9 -6 109 -6 224
0 227 2 235 57 228 27 -3 28 -5 31 -70 l3 -68 76 0 76 0 -6 70 c-7 82 -33 132
-80 157 -38 19 -139 26 -190 11z"/>
<path d="M1660 3235 l0 -55 50 0 50 0 0 -280 0 -280 75 0 75 0 0 280 0 280 50
0 50 0 0 55 0 55 -175 0 -175 0 0 -55z"/>
<path d="M2060 2955 l0 -335 155 0 155 0 0 50 0 50 -80 0 -80 0 0 100 0 100
60 0 60 0 0 50 0 50 -60 0 -60 0 0 85 0 85 80 0 80 0 0 50 0 50 -155 0 -155 0
0 -335z"/>
<path d="M2900 2955 l0 -335 75 0 75 0 0 145 0 145 50 0 50 0 0 -145 0 -145
75 0 75 0 0 335 0 335 -75 0 -75 0 0 -135 0 -135 -50 0 -50 0 0 135 0 135 -75
0 -75 0 0 -335z"/>
<path d="M1505 2258 c7 -54 75 -615 75 -623 0 -3 29 -5 65 -5 l64 0 6 33 c7
41 45 325 46 346 0 9 2 12 5 6 3 -9 54 -361 54 -377 0 -5 29 -8 65 -8 l64 0 5
33 c6 33 76 618 76 630 0 4 -27 7 -60 7 -70 0 -64 12 -80 -160 -22 -236 -21
-235 -50 -30 l-25 185 -50 0 -50 0 -21 -165 c-12 -91 -23 -174 -26 -185 -3
-19 -39 283 -38 333 0 21 -4 22 -66 22 l-65 0 6 -42z"/>
<path d="M2100 1965 l0 -335 75 0 75 0 0 145 0 145 55 0 55 0 0 -145 0 -145
70 0 70 0 0 335 0 335 -70 0 -70 0 0 -135 0 -135 -55 0 -55 0 0 135 0 135 -75
0 -75 0 0 -335z"/>
<path d="M2610 1965 l0 -335 75 0 75 0 0 335 0 335 -75 0 -75 0 0 -335z"/>
<path d="M2840 2250 l0 -50 75 0 c41 0 75 -4 75 -9 0 -5 -36 -114 -80 -242
-52 -151 -80 -247 -80 -275 l0 -44 155 0 155 0 0 50 0 50 -80 0 c-44 0 -80 4
-80 9 0 5 36 114 80 242 52 151 80 247 80 275 l0 44 -150 0 -150 0 0 -50z"/>
<path d="M3200 2250 l0 -50 75 0 c41 0 75 -2 75 -4 0 -2 -36 -110 -80 -239
-54 -159 -80 -250 -80 -281 l0 -46 155 0 155 0 0 50 0 50 -84 0 -85 0 85 246
c50 145 84 261 84 285 l0 39 -150 0 -150 0 0 -50z"/>
<path d="M4130 1626 c0 -596 -2 -664 -16 -670 -9 -3 -310 -6 -670 -6 l-654 0
0 -35 0 -35 708 2 707 3 3 703 2 702 -40 0 -40 0 0 -664z"/>
</g>
</svg>
