<?xml version="1.0" standalone="no"?>
<!DOCTYPE svg PUBLIC "-//W3C//DTD SVG 20010904//EN"
 "http://www.w3.org/TR/2001/REC-SVG-20010904/DTD/svg10.dtd">
<svg version="1.0" xmlns="http://www.w3.org/2000/svg"
 width="500.000000pt" height="500.000000pt" viewBox="0 0 500.000000 500.000000"
 preserveAspectRatio="xMidYMid meet">

<g transform="translate(0.000000,500.000000) scale(0.100000,-0.100000)"
fill="#000000" stroke="none">
<path d="M0 2500 l0 -2500 2500 0 2500 0 0 2500 0 2500 -2500 0 -2500 0 0
-2500z m2120 1585 l0 -35 -647 0 c-357 0 -658 -3 -670 -6 l-23 -6 0 -664 0
-664 -35 0 -35 0 0 705 0 705 705 0 705 0 0 -35z m621 -811 c48 -28 71 -74 77
-155 l5 -69 -77 0 -76 0 0 54 c0 72 -7 86 -39 86 -49 0 -51 -9 -51 -235 0
-227 2 -235 52 -235 31 0 36 12 40 95 l3 50 74 3 73 3 -4 -68 c-7 -139 -71
-198 -204 -190 -91 5 -130 27 -164 92 -24 48 -25 55 -25 250 0 189 1 203 23
247 27 54 39 65 89 84 52 19 161 13 204 -12z m-731 -39 l0 -55 -50 0 -50 0 0
-280 0 -280 -75 0 -75 0 0 280 0 280 -50 0 -50 0 0 55 0 55 175 0 175 0 0 -55z
m360 5 l0 -50 -80 0 -81 0 3 -82 3 -83 58 -3 57 -3 0 -49 0 -50 -60 0 -60 0 0
-100 0 -100 80 0 80 0 0 -50 0 -50 -155 0 -155 0 0 335 0 335 155 0 155 0 0
-50z m680 -85 l0 -135 50 0 50 0 0 135 0 135 75 0 75 0 0 -335 0 -335 -75 0
-75 0 0 145 0 145 -50 0 -50 0 0 -145 0 -145 -75 0 -75 0 0 335 0 335 75 0 75
0 0 -135z m-1404 -1042 c10 -104 20 -179 22 -168 2 11 13 94 25 185 l22 165
50 0 50 0 24 -178 c13 -97 26 -176 27 -174 2 1 10 72 19 157 22 219 14 200 85
200 33 0 60 -4 60 -9 0 -15 -69 -594 -75 -628 l-6 -33 -64 0 c-36 0 -65 4 -65
9 0 16 -52 366 -54 369 -2 1 -13 -73 -25 -165 -31 -237 -20 -213 -96 -213
l-64 0 -6 43 c-7 53 -75 614 -75 622 0 3 28 5 63 5 l64 0 19 -187z m604 52 l0
-135 55 0 55 0 0 135 0 135 75 0 75 0 0 -335 0 -335 -75 0 -75 0 0 145 0 145
-55 0 -55 0 0 -145 0 -145 -75 0 -75 0 0 335 0 335 75 0 75 0 0 -135z m510
-200 l0 -335 -75 0 -75 0 0 335 0 335 75 0 75 0 0 -335z m380 291 c0 -30 -27
-123 -80 -277 -44 -128 -80 -236 -80 -241 0 -4 36 -8 80 -8 l80 0 0 -50 0 -50
-155 0 -155 0 0 44 c0 30 27 123 80 277 44 128 80 236 80 241 0 4 -34 8 -75 8
l-75 0 0 50 0 50 150 0 150 0 0 -44z m360 5 c0 -23 -35 -143 -84 -285 l-83
-246 83 0 84 0 0 -50 0 -50 -155 0 -155 0 0 48 c0 34 23 116 80 281 44 128 80
234 80 237 0 2 -34 4 -75 4 l-75 0 0 50 0 50 150 0 150 0 0 -39z m708 -673
l-3 -703 -707 -3 -708 -2 0 35 0 35 654 0 c360 0 661 3 670 6 14 6 16 74 16
670 l0 664 40 0 40 0 -2 -702z"/>
</g>
</svg>
